<svg xmlns="http://www.w3.org/2000/svg" xmlns:xlink="http://www.w3.org/1999/xlink" width="121.61" height="136.77" viewBox="0 0 121.61 136.77">
  <defs>
    <style>
      .cls-1, .cls-4 {
        fill: none;
      }

      .cls-2 {
        clip-path: url(#clip-path);
      }

      .cls-3, .cls-5 {
        fill: #afc836;
      }

      .cls-12, .cls-13, .cls-14, .cls-4, .cls-5, .cls-6, .cls-7 {
        stroke: #080907;
        stroke-miterlimit: 10;
      }

      .cls-6 {
        fill: #13130f;
      }

      .cls-7 {
        fill: #dfe4c7;
      }

      .cls-8 {
        fill: #1b1224;
      }

      .cls-14, .cls-9 {
        fill: #110d13;
      }

      .cls-10 {
        fill: #eceee0;
      }

      .cls-11, .cls-13 {
        fill: #ec1c2a;
      }

      .cls-12 {
        fill: #ecefdf;
      }
    </style>
    <clipPath id="clip-path">
      <rect class="cls-1" x="341.23" y="-275.73" width="1912.62" height="1073.43"/>
    </clipPath>
  </defs>
  <g id="Monsters_and_bomb" data-name="Monsters and bomb">
    <g>
      <g>
        <path class="cls-3" d="M70.5,61.24c-15.89,21.24-39.24,37.7-56.72,8.51-.31-.53-.66-.43-.92,0h0a1.74,1.74,0,0,0-.06,1.7c17.93,30.21,42.07,13,58.44-8.82A1.64,1.64,0,0,0,71.47,61h0C71.19,60.56,70.79,60.85,70.5,61.24Z"/>
        <path class="cls-4" d="M70.5,61.24c-15.89,21.24-39.24,37.7-56.72,8.51-.31-.53-.66-.43-.92,0h0a1.74,1.74,0,0,0-.06,1.7c17.93,30.21,42.07,13,58.44-8.82A1.64,1.64,0,0,0,71.47,61h0C71.19,60.56,70.79,60.85,70.5,61.24Z"/>
      </g>
      <g>
        <path class="cls-3" d="M60.54,68.57c26.15-9.11,43.31-29.2,19.4-54.24-.43-.45-.28-.79.2-1h0a1.49,1.49,0,0,1,1.59.34c24.69,25.66,6.93,46.61-20,55.88a1.82,1.82,0,0,1-1.7-.18h0C59.66,69,60.07,68.73,60.54,68.57Z"/>
        <path class="cls-4" d="M60.54,68.57c26.15-9.11,43.31-29.2,19.4-54.24-.43-.45-.28-.79.2-1h0a1.49,1.49,0,0,1,1.59.34c24.69,25.66,6.93,46.61-20,55.88a1.82,1.82,0,0,1-1.7-.18h0C59.66,69,60.07,68.73,60.54,68.57Z"/>
      </g>
      <path class="cls-5" d="M107.1,128.18h0a1.07,1.07,0,0,1-1.47-.61c-5.83-18.33-10.24-35.66-21.86-51-.46-.6,0-1.14.44-1.42h0a1.16,1.16,0,0,1,1.63.15c11.82,15.6,15.82,33.11,22,51.54A1.05,1.05,0,0,1,107.1,128.18Z"/>
      <path class="cls-5" d="M91.59,130.26h0a1.54,1.54,0,0,1-1.44-.94c-4.11-15.87-9.59-31-19.78-43.55-.39-.49,0-1.1.43-1.39h0c.42-.29,1.13-.55,1.54,0,10.45,13.23,15.81,28.54,20.19,45C92.7,130,92.11,130.28,91.59,130.26Z"/>
      <g>
        <path class="cls-6" d="M83.15,60.59c6.79,7.91,4.72,18.39-3.4,23.73S61.72,89.74,55,82.5s-4.77-18,2.78-24.28S76.36,52.69,83.15,60.59Z"/>
        <path class="cls-7" d="M52.83,67.56C56.88,62.67,61,57.81,65,52.9c.79,5.67,1.54,11.34,2.19,17C62.41,69,57.66,68.18,52.83,67.56Z"/>
      </g>
      <path class="cls-3" d="M62.39,37.25c7,8.9,7.76,18.73-1.34,25.76s-17.55,7.3-24.92-1.72S26.91,40,36.12,32,55.34,28.34,62.39,37.25Z"/>
      <g>
        <path class="cls-8" d="M52.59,27.26c4.62,5.88-4.75,10.1-8.4,13.07s-9.74,12-14.24,6S29,32.07,34.26,27.6,48,21.39,52.59,27.26Z"/>
        <path class="cls-9" d="M14.62,57.1c18.13-13.9,36.84-28,55.43-41.73-1.32,5.08-9.92,15.33-14.32,20.11C49.59,42.15,34.46,51.15,27.25,53.8c-6.52,2.41-7.67,3.12-12.39,4C13.53,58,14.05,57.54,14.62,57.1Z"/>
      </g>
      <g>
        <path class="cls-10" d="M43.44,52.85c1.34,1.56,2.38,4.2.59,5.74s-4.29.14-5.66-1.41S36,53,37.78,51.44,42.09,51.28,43.44,52.85Z"/>
        <path class="cls-9" d="M42.21,54.41c-.6.49-1.43,1.32-2,1.85a.56.56,0,0,1-.71.11h0a.51.51,0,0,1,.1-.72c.6-.49,1.44-1.32,2-1.85a.55.55,0,0,1,.71-.11h0A.5.5,0,0,1,42.21,54.41Z"/>
      </g>
      <g>
        <path class="cls-10" d="M58.12,41c1.36,1.41,2.05,3.68.36,5s-4.06.37-5.41-1-2-3.68-.36-5S56.76,39.59,58.12,41Z"/>
        <path class="cls-9" d="M56.89,42.4c-.59.44-1.45,1.23-2,1.7a.6.6,0,0,1-.7.13h0a.44.44,0,0,1,.13-.64c.59-.44,1.45-1.23,2-1.71a.58.58,0,0,1,.69-.12h0C57.16,41.87,57.15,42.2,56.89,42.4Z"/>
      </g>
      <path class="cls-11" d="M54.45,55.24h0a2,2,0,0,1-2.83.2,10.92,10.92,0,0,1-1.14-1.31A2.08,2.08,0,0,1,51,51.32h0a2,2,0,0,1,2.8-.11A10.11,10.11,0,0,1,55,52.51,2,2,0,0,1,54.45,55.24Z"/>
      <path class="cls-12" d="M61.58,51c2,2,.12,6.85-2,8.81s-7.55,4-9.63,2.11,5.56-4.25,6.52-5.27S59.55,49,61.58,51Z"/>
      <path class="cls-12" d="M51.66,59.43l2.58-1.1L52,62.19C51.9,61.27,51.78,60.35,51.66,59.43Z"/>
      <path class="cls-12" d="M55.29,57.83c.68-.65,1.35-1.29,2-1.92.39,1.29.78,2.59,1.14,3.89C57.4,59.16,56.35,58.5,55.29,57.83Z"/>
      <path class="cls-12" d="M58.28,54.56c.38-.81.77-1.62,1.16-2.42.65,1.12,1.31,2.23,2,3.36C60.37,55.16,59.32,54.86,58.28,54.56Z"/>
      <path class="cls-13" d="M69.69,70.44a1.54,1.54,0,0,1-1,1.86,1.36,1.36,0,0,1-1.93-.51,1.54,1.54,0,0,1,1-1.86A1.35,1.35,0,0,1,69.69,70.44Z"/>
      <path class="cls-13" d="M74.47,76c.28.79-.45,1.5-1.07,1.8s-1.54.36-1.81-.44a1.6,1.6,0,0,1,1-1.83C73.24,75.21,74.2,75.18,74.47,76Z"/>
      <path class="cls-13" d="M78.81,80.64a1.57,1.57,0,0,1-1.07,1.8,1.29,1.29,0,0,1-1.83-.6c-.26-.8.43-1.5,1.08-1.8A1.26,1.26,0,0,1,78.81,80.64Z"/>
      <path class="cls-14" d="M86.47,124.49c2,1.34,5,2.19,6.77.47s3.29,6.32,3.53,7.68c1.54-1.34-5.6-.16-10.88,1.23-3.85,1-6.51,3.51-9.42,1.75-2.65-2.69-2.66-5.66.7-7.2S83.43,126.36,86.47,124.49Z"/>
      <path class="cls-14" d="M109.54,123.62c-2.15,1.54-4.89,2.06-6.46-.1s-3.49,6.28-3.85,7.55c-.89-1.68,7.12,2.32,10.79,3.65,2.66,1,7,2.6,9,.63,2.54-2.74,3.07-6.09-.53-7.28S112.13,126.5,109.54,123.62Z"/>
      <g>
        <path class="cls-5" d="M81.29,11.8l-2.66,3.13Q75.24,9.68,71.92,4.38C75,6.87,78.17,9.33,81.29,11.8Z"/>
        <path class="cls-5" d="M77.44,1c3.07,3.16,7.25,9.91,3.91,13.77s-10.06-1.11-12.84-4.46,8.67,4.81,10.92,2.26S74.38-2.14,77.44,1Z"/>
      </g>
      <g>
        <path class="cls-5" d="M13.6,67.34l-2.68,3.15C8.7,67,6.53,63.5,4.34,60Q9,63.69,13.6,67.34Z"/>
        <path class="cls-5" d="M9.84,56.6c3.07,3.15,7.12,9.83,3.78,13.7S3.71,69.34.93,66s8.59,4.69,10.82,2.14S6.78,53.45,9.84,56.6Z"/>
      </g>
    </g>
  </g>
</svg>
