<svg xmlns="http://www.w3.org/2000/svg" width="135" height="135" viewBox="0 0 135 135">
  <defs>
    <style>
      .cls-1 {
        fill: #954d22;
      }

      .cls-2 {
        fill: #110d13;
      }

      .cls-3 {
        fill: #050506;
      }

      .cls-4 {
        fill: #ec1c24;
      }

      .cls-5 {
        fill: #e8d8c9;
      }
    </style>
  </defs>
  <g id="Monsters_and_bomb" data-name="Monsters and bomb">
    <g>
      <path class="cls-1" d="M107.58,101.71C100.41,94.55,93,87.62,85.84,80.5c4-2.21,7.93-4.6,11.87-7C100.69,83,104.14,92.37,107.58,101.71Z"/>
      <path class="cls-1" d="M71.14,117.51c-4.6-8.71-9.27-17.35-14.31-25.81,4.07-1.41,8.1-3,12.13-4.46C70,97.3,70.34,107.43,71.14,117.51Z"/>
      <path class="cls-1" d="M116.92,23.49c-9.4,7.13-19,14-28.28,21.29,3.21,2.15,6.27,4.53,9.39,6.83Q107.44,37.53,116.92,23.49Z"/>
      <path class="cls-1" d="M18.08,56.84c10.07.41,18.17,6.38,28.24,6.29-.3,3.53-.71,7-1.17,10.54C34.64,70.69,27.85,61.49,18.08,56.84Z"/>
      <path class="cls-1" d="M58.17,29.16c-.55.26-1.92.84-2.51,1.05s-1.07.23-1.38-.29A50.61,50.61,0,0,1,50.1,20c-.19-.57.14-.94.72-1.22s2-.89,2.58-1.12,1.06-.22,1.27.35a74.33,74.33,0,0,0,4.11,10C59.07,28.54,58.73,28.89,58.17,29.16Z"/>
      <path class="cls-2" d="M72.75,50.16c-3.27,1.16-6.59,2.16-9.89,3.24-3.24-12-7.86-16-13.12-26.07l10.17-4.9C64.5,31.89,70.09,39.68,72.75,50.16Z"/>
      <path class="cls-2" d="M55,18.73,50.74,22"/>
      <path class="cls-3" d="M56,20.15,51.71,24.5"/>
      <path class="cls-2" d="M103.72,53.53c2.12,21.12-14.57,35.34-33.32,38.89S37.16,82.27,38.64,64.28s9.47-23.34,24.92-30.19S101.6,32.4,103.72,53.53Z"/>
      <path class="cls-4" d="M57.83,61.4c.78,1.69,2.53,6.29.16,7.24S53.38,65,52.76,63.41s-2.41-6.3-.14-7.1S57.06,59.71,57.83,61.4Z"/>
      <path class="cls-4" d="M79.28,49.74c1,1.8,3.25,6.44.85,7.84s-5.1-3-6-4.74-3.51-6.09-1.2-7.57S78.24,47.94,79.28,49.74Z"/>
      <path class="cls-5" d="M54.42,77.28c14.69-.06,26.92-6.7,37.17-17.28a2.83,2.83,0,0,1,1.87-1h0c.65,0,.72.42.12,1C82.56,71.38,69,78.88,53.15,78.6c-.87,0-1-.36-.61-.81h0A2.49,2.49,0,0,1,54.42,77.28Z"/>
      <path class="cls-4" d="M60,88.36c.78-3.46,1.71-6.87,2.49-10.33-2,.33-4.08.74-6.12,1C57.58,82.14,58.77,85.26,60,88.36Z"/>
      <path class="cls-4" d="M94.62,73.12l-9.36-5c1.69-1.42,3.39-2.84,5.06-4.29C91.79,66.89,93.19,70,94.62,73.12Z"/>
    </g>
  </g>
</svg>
