<svg xmlns="http://www.w3.org/2000/svg" xmlns:xlink="http://www.w3.org/1999/xlink" width="135" height="135" viewBox="0 0 135 135">
  <defs>
    <style>
      .cls-1, .cls-4 {
        fill: none;
      }

      .cls-2 {
        clip-path: url(#clip-path);
      }

      .cls-3, .cls-5 {
        fill: #afc836;
      }

      .cls-12, .cls-13, .cls-14, .cls-4, .cls-5, .cls-6, .cls-7 {
        stroke: #080907;
        stroke-miterlimit: 10;
      }

      .cls-6 {
        fill: #13130f;
      }

      .cls-7 {
        fill: #dfe4c7;
      }

      .cls-8 {
        fill: #1b1224;
      }

      .cls-14, .cls-9 {
        fill: #110d13;
      }

      .cls-10 {
        fill: #eceee0;
      }

      .cls-11, .cls-13 {
        fill: #ec1c2a;
      }

      .cls-12 {
        fill: #ecefdf;
      }
    </style>
    <clipPath id="clip-path">
      <rect class="cls-1" x="347.93" y="-276.62" width="1912.62" height="1073.43"/>
    </clipPath>
  </defs>
  <g id="Monsters_and_bomb" data-name="Monsters and bomb">
    <g>
      <g>
        <path class="cls-3" d="M77.19,60.35C61.3,81.59,38,98.05,20.48,68.87c-.32-.53-.67-.44-.93,0h0a1.72,1.72,0,0,0-.05,1.69c17.93,30.22,42.07,13,58.43-8.82a1.64,1.64,0,0,0,.24-1.62h0C77.89,59.67,77.48,60,77.19,60.35Z"/>
        <path class="cls-4" d="M77.19,60.35C61.3,81.59,38,98.05,20.48,68.87c-.32-.53-.67-.44-.93,0h0a1.72,1.72,0,0,0-.05,1.69c17.93,30.22,42.07,13,58.43-8.82a1.64,1.64,0,0,0,.24-1.62h0C77.89,59.67,77.48,60,77.19,60.35Z"/>
      </g>
      <g>
        <path class="cls-3" d="M67.24,67.68c26.15-9.1,43.31-29.2,19.4-54.24-.43-.45-.28-.78.2-1h0a1.52,1.52,0,0,1,1.59.35c24.69,25.65,6.93,46.6-20,55.88a1.84,1.84,0,0,1-1.71-.18h0C66.35,68.14,66.76,67.84,67.24,67.68Z"/>
        <path class="cls-4" d="M67.24,67.68c26.15-9.1,43.31-29.2,19.4-54.24-.43-.45-.28-.78.2-1h0a1.52,1.52,0,0,1,1.59.35c24.69,25.65,6.93,46.6-20,55.88a1.84,1.84,0,0,1-1.71-.18h0C66.35,68.14,66.76,67.84,67.24,67.68Z"/>
      </g>
      <path class="cls-5" d="M113.79,127.29h0a1.07,1.07,0,0,1-1.47-.61c-5.83-18.33-10.23-35.65-21.86-51-.45-.6,0-1.14.45-1.42h0a1.16,1.16,0,0,1,1.63.15c11.81,15.61,15.81,33.11,22,51.55A1,1,0,0,1,113.79,127.29Z"/>
      <path class="cls-5" d="M98.29,129.37h0a1.53,1.53,0,0,1-1.44-.94c-4.11-15.87-9.59-31-19.78-43.54-.4-.5,0-1.11.43-1.4h0c.42-.29,1.13-.55,1.54,0,10.45,13.24,15.81,28.54,20.19,45C99.4,129.12,98.81,129.39,98.29,129.37Z"/>
      <g>
        <path class="cls-6" d="M89.84,59.71c6.79,7.9,4.73,18.38-3.39,23.72s-18,5.43-24.77-1.82-4.77-18,2.78-24.28S83.05,51.81,89.84,59.71Z"/>
        <path class="cls-7" d="M59.53,66.68c4-4.89,8.13-9.76,12.15-14.67.8,5.67,1.55,11.35,2.2,17C69.1,68.08,64.36,67.29,59.53,66.68Z"/>
      </g>
      <path class="cls-3" d="M69.09,36.36c7,8.9,7.75,18.73-1.34,25.76s-17.56,7.3-24.92-1.72-9.22-21.33,0-29.32S62,27.46,69.09,36.36Z"/>
      <g>
        <path class="cls-8" d="M59.29,26.38c4.62,5.87-4.75,10.09-8.4,13.06s-9.75,12-14.25,6-1-14.28,4.31-18.76S54.67,20.5,59.29,26.38Z"/>
        <path class="cls-9" d="M21.31,56.22c18.14-13.9,36.85-28,55.43-41.74-1.31,5.08-9.91,15.33-14.31,20.12-6.14,6.66-21.28,15.66-28.49,18.32-6.51,2.4-7.67,3.11-12.39,4C20.22,57.14,20.74,56.66,21.31,56.22Z"/>
      </g>
      <g>
        <path class="cls-10" d="M50.13,52c1.35,1.56,2.38,4.21.59,5.75s-4.29.13-5.66-1.42-2.38-4.17-.59-5.74S48.78,50.4,50.13,52Z"/>
        <path class="cls-9" d="M48.91,53.53c-.61.49-1.44,1.32-2,1.84a.54.54,0,0,1-.71.11h0a.49.49,0,0,1,.1-.71c.6-.49,1.43-1.32,2-1.85A.55.55,0,0,1,49,52.8h0A.53.53,0,0,1,48.91,53.53Z"/>
      </g>
      <g>
        <path class="cls-10" d="M64.82,40.11c1.35,1.41,2.05,3.68.36,5s-4.06.36-5.42-1-2-3.68-.36-5S63.46,38.7,64.82,40.11Z"/>
        <path class="cls-9" d="M63.58,41.51c-.59.44-1.44,1.23-2,1.71a.58.58,0,0,1-.69.12h0A.43.43,0,0,1,61,42.7c.6-.44,1.45-1.23,2-1.71a.58.58,0,0,1,.69-.12h0A.43.43,0,0,1,63.58,41.51Z"/>
      </g>
      <path class="cls-11" d="M61.15,54.35h0a2,2,0,0,1-2.83.21,9.56,9.56,0,0,1-1.14-1.32,2.08,2.08,0,0,1,.55-2.81h0a2,2,0,0,1,2.8-.11,10.94,10.94,0,0,1,1.14,1.3A2,2,0,0,1,61.15,54.35Z"/>
      <path class="cls-12" d="M68.27,50.12c2,2,.12,6.86-2,8.81s-7.55,4-9.63,2.12,5.55-4.25,6.52-5.28S66.24,48.11,68.27,50.12Z"/>
      <path class="cls-12" d="M58.36,58.55l2.58-1.11-2.22,3.87Z"/>
      <path class="cls-12" d="M62,57c.67-.65,1.35-1.3,2-1.93.39,1.3.78,2.59,1.15,3.89C64.1,58.27,63,57.61,62,57Z"/>
      <path class="cls-12" d="M65,53.67c.39-.81.78-1.61,1.16-2.42.66,1.12,1.32,2.24,2,3.37C67.06,54.27,66,54,65,53.67Z"/>
      <path class="cls-13" d="M76.38,69.55a1.54,1.54,0,0,1-1,1.86,1.35,1.35,0,0,1-1.93-.51,1.54,1.54,0,0,1,1-1.86A1.34,1.34,0,0,1,76.38,69.55Z"/>
      <path class="cls-13" d="M81.17,75.09c.27.8-.45,1.5-1.07,1.8s-1.55.36-1.82-.43a1.62,1.62,0,0,1,1-1.84C79.94,74.32,80.9,74.3,81.17,75.09Z"/>
      <path class="cls-13" d="M85.51,79.76a1.57,1.57,0,0,1-1.08,1.79A1.29,1.29,0,0,1,82.6,81c-.26-.8.43-1.5,1.08-1.8A1.27,1.27,0,0,1,85.51,79.76Z"/>
      <path class="cls-14" d="M93.16,123.6c2,1.34,5,2.19,6.77.48s3.3,6.31,3.53,7.67c1.55-1.34-5.59-.16-10.88,1.23-3.84,1-6.5,3.52-9.42,1.76-2.65-2.69-2.65-5.67.7-7.2S90.12,125.48,93.16,123.6Z"/>
      <path class="cls-14" d="M116.24,122.73c-2.15,1.54-4.9,2.06-6.46-.1s-3.49,6.29-3.85,7.56c-.9-1.69,7.11,2.32,10.78,3.64,2.67,1,7,2.6,9.05.63,2.55-2.74,3.08-6.09-.53-7.28S118.83,125.61,116.24,122.73Z"/>
      <g>
        <path class="cls-5" d="M88,10.92c-.89,1-1.78,2.08-2.66,3.13-2.26-3.5-4.51-7-6.72-10.56Q83.29,7.23,88,10.92Z"/>
        <path class="cls-5" d="M84.14.13C87.2,3.29,91.38,10,88.05,13.9S78,12.79,75.2,9.44s8.68,4.81,10.93,2.26S81.07-3,84.14.13Z"/>
      </g>
      <g>
        <path class="cls-5" d="M20.29,66.45,17.61,69.6c-2.21-3.47-4.39-7-6.58-10.48Z"/>
        <path class="cls-5" d="M16.54,55.71c3.06,3.16,7.12,9.83,3.78,13.7s-9.91-1-12.69-4.29,8.59,4.69,10.81,2.14S13.48,52.56,16.54,55.71Z"/>
      </g>
    </g>
  </g>
</svg>
