<svg xmlns="http://www.w3.org/2000/svg" xmlns:xlink="http://www.w3.org/1999/xlink" width="135" height="135" viewBox="0 0 135 135">
  <defs>
    <style>
      .cls-1 {
        fill: none;
      }

      .cls-2 {
        clip-path: url(#clip-path);
      }

      .cls-3, .cls-4, .cls-5 {
        fill: #e8d9ca;
      }

      .cls-3, .cls-5, .cls-8 {
        stroke: #0d0611;
        stroke-miterlimit: 10;
      }

      .cls-5 {
        stroke-width: 4px;
      }

      .cls-6, .cls-8 {
        fill: #0d0611;
      }

      .cls-7 {
        fill: #ed1c2a;
      }
    </style>
    <clipPath id="clip-path">
      <rect class="cls-1" x="337.33" y="-91.86" width="1912.62" height="1073.43"/>
    </clipPath>
  </defs>
  <g id="Monsters_and_bomb" data-name="Monsters and bomb">
    <g>
      <path class="cls-3" d="M54.7,130.05c0,.18-.09,0,0,0,.78,0,1.1-.44,1.21-1.23,1.27-10.09,2.79-20.21,3.36-30.36a1,1,0,0,0-1-1.23c-.35,0,0-.14,0,0A1,1,0,0,0,57,98.33c-.48,10.17-2,20.29-3.27,30.39C53.63,129.51,53.92,130,54.7,130.05Z"/>
      <path class="cls-3" d="M42.3,124.49c.05.19-.08,0,0,0,.77.08,1.18-.32,1.2-1.13.21-10.31-.07-18.58,4.42-28.1.35-.75.19-1.22-.47-1.55,0-.18.07,0,0,0-.66-.32-1.12-.22-1.49.55-4.69,9.78-4.32,18.26-4.63,28.85C41.3,123.94,41.53,124.41,42.3,124.49Z"/>
      <path class="cls-4" d="M73.14,76.22c13.27,22.56,16,4.08,15.5-10.4,0-1.27-.5-1.09-1.34-.92-.2,0-.06-.28,0,0-.84.16-1,.84-.92,1.71.41,9.81.4,29.44-10.11,8.12-.92-1.88-.82-1.24-2.1-.61-.27-.2-.25-.22,0,0C72.9,74.75,72,74.23,73.14,76.22Z"/>
      <path class="cls-4" d="M43.63,71.48c-5-16.18-10.9-26.46-3-42.67.7-1.43,1-.85,1.62-.06.31.4.12-.35,0,0,.63.8.29,1.25-.1,2.4-4.47,13,.16,25.23,3.63,38.13A2.51,2.51,0,0,1,45.36,72c-.45.46.2.26,0,0C44.6,72.79,44.07,72.91,43.63,71.48Z"/>
      <path class="cls-5" d="M77,83.24C74.33,94.82,64.9,103.55,52.51,100S36.06,85.25,39.72,73.8s13.86-20,25.1-15.56S79.63,71.67,77,83.24Z"/>
      <path class="cls-6" d="M101.75,5.82C98.38,19.32,97,30.63,84.17,38c.47-2.51-.84-3.35-2.27-5.22C93.07,28.08,96.19,15.93,101.75,5.82Z"/>
      <path class="cls-6" d="M84.78-3C72.1,7.58,66.13,11.55,67.34,29.21c1.8-1.76,3.43-1.29,5.75-1.28C69.85,11.19,75.9,9.56,84.78-3Z"/>
      <path class="cls-4" d="M88.42,47.08c-5,8.59-14,15-24,11.33s-10-16.1-5.26-24.83,13.51-13,22.71-8S93.45,38.48,88.42,47.08Z"/>
      <g>
        <path class="cls-6" d="M83.22,41C82,42.92,79.91,47.27,77.14,46s-.27-5.25.88-7.15,3.08-5.95,5.87-4.8S84.41,39.16,83.22,41Z"/>
        <path class="cls-7" d="M81.36,40.28c-.48.78-1.6,4.39-2.88,3.72s1.25-3.45,1.75-4.27,1.53-4.3,2.83-3.75S81.84,39.5,81.36,40.28Z"/>
      </g>
      <g>
        <path class="cls-6" d="M72.07,35.46c-1,1.93-3,6.23-5.64,4.85s-.12-5.68.86-7.6,3.08-6.17,5.64-4.62S73.1,33.53,72.07,35.46Z"/>
        <path class="cls-7" d="M70.25,34.29c-.44.84-1.44,4.49-2.69,3.85s1.19-3.65,1.63-4.46S70.67,29.25,71.9,30,70.69,33.45,70.25,34.29Z"/>
      </g>
      <path class="cls-6" d="M73.55,44.41c-.45.87-1.71,2.4-2.85,1.89s-.57-2.32-.1-3.15a1.76,1.76,0,0,1,2.27-.84A1.43,1.43,0,0,1,73.55,44.41Z"/>
      <g>
        <path class="cls-7" d="M76.92,49.71c-1.51,3.42-6.14,6.19-10,4.55s-4.41-7-2.33-10.28,4,3.61,5.42,4.34S78.43,46.28,76.92,49.71Z"/>
        <path class="cls-6" d="M59.28,52.49c2.93-1.85,6-3.44,9.07-5.05-.64-1.15-1.25-2.31-1.83-3.49C64,46.75,61.55,49.52,59.28,52.49Z"/>
        <path d="M72.83,57.73c-.54-2.8-.9-5.64-1.29-8.46,1-.18,1.94-.36,2.92-.52C73.85,51.73,73.3,54.72,72.83,57.73Z"/>
      </g>
      <path class="cls-6" d="M72,81.27c-2,8.19-8.93,13.84-17.58,11.48S42.69,82.38,45.3,74.33,54.89,61,62.9,63.73,74,73.09,72,81.27Z"/>
      <g>
        <path class="cls-8" d="M43.87,29.51c-.52-.7-1-1.41-1.55-2.12L51.59,23Z"/>
        <path class="cls-8" d="M51.84,27.4c-1.47,1.82-7.58,5.08-9.8,1.73s3.74-7.49,5.63-8.59S43.18,25.66,44,27.7,53.3,25.58,51.84,27.4Z"/>
      </g>
      <g>
        <path class="cls-8" d="M89.17,66.46l-2.38.75q-.12-5.14-.21-10.3Q87.86,61.7,89.17,66.46Z"/>
        <path class="cls-8" d="M90.31,57.9C91.68,60.71,91.58,67,88.13,68s-5.28-5.2-5-8,2.34,6.06,4.46,5.68S89,55.09,90.31,57.9Z"/>
      </g>
      <path class="cls-8" d="M41.32,121c-1.85,1.61-3.81,3.1-5.72,4.63l4.07-1.25L38.53,129l3.26-4.37L43,127.93a53.71,53.71,0,0,0,1.56-6.21Z"/>
      <path class="cls-8" d="M56.47,127l4.8,5.61-3.74-1.88c.07,1.62.14,3.25.2,4.87q-1.15-2.44-2.33-4.89l-1.78,3.09c-.15-2.16-.31-4.33-.41-6.5C54.3,127.16,55.38,127.05,56.47,127Z"/>
    </g>
  </g>
</svg>
